<svg width="32" height="32" viewBox="0 0 32 32" fill="none" xmlns="http://www.w3.org/2000/svg">
<path fill-rule="evenodd" clip-rule="evenodd" d="M7.83366 20.9221H5.12196L3.08851 13.1644C2.992 12.8075 2.78707 12.492 2.48562 12.3434C1.73332 11.9697 0.904342 11.6723 0 11.5223V11.2237H4.36834C4.97124 11.2237 5.42341 11.6723 5.49877 12.1934L6.55384 17.7893L9.26422 11.2237H11.9006L7.83366 20.9221ZM13.4078 20.9221H10.8468L12.9556 11.2237H15.5166L13.4078 20.9221ZM18.8296 13.9104C18.905 13.3881 19.3572 13.0894 19.8847 13.0894C20.7137 13.0144 21.6167 13.1644 22.3703 13.5368L22.8225 11.4487C22.0689 11.15 21.2399 11 20.4876 11C18.002 11 16.1933 12.3434 16.1933 14.2078C16.1933 15.6262 17.4745 16.3709 18.3788 16.8196C19.3572 17.2669 19.734 17.5656 19.6586 18.013C19.6586 18.684 18.905 18.9827 18.1527 18.9827C17.2484 18.9827 16.344 18.759 15.5164 18.3853L15.0642 20.4748C15.9685 20.8471 16.9469 20.9971 17.8513 20.9971C20.6383 21.0708 22.3703 19.7287 22.3703 17.7143C22.3703 15.1775 18.8296 15.0288 18.8296 13.9104V13.9104ZM31.3333 20.9221L29.2998 11.2237H27.1156C26.6635 11.2237 26.2113 11.5223 26.0606 11.9697L22.2951 20.9221H24.9315L25.4577 19.505H28.6969L28.9984 20.9221H31.3333ZM27.4923 13.8345L28.2446 17.4896H26.1358L27.4923 13.8345Z" fill="#172B85"/>
</svg>
